<svg width="60" height="28" viewBox="0 0 60 28" fill="none" xmlns="http://www.w3.org/2000/svg">
<path d="M25.2185 28L25.1795 9.904L16.2095 24.88H13.9475L4.97751 10.138V28H0.141508V0.699998H4.31451L15.1565 18.796L25.8035 0.699998H29.9765L30.0155 28H25.2185ZM45.2676 4.99H36.2196V0.699998H59.3856V4.99H50.3376V28H45.2676V4.99Z" fill="#16A2B4"/>
<path d="M25.2185 28L24.7185 28.0011L24.7196 28.5H25.2185V28ZM25.1795 9.904L25.6795 9.90292L25.6756 8.10263L24.7506 9.64708L25.1795 9.904ZM16.2095 24.88V25.38H16.4929L16.6385 25.1369L16.2095 24.88ZM13.9475 24.88L13.5204 25.1399L13.6665 25.38H13.9475V24.88ZM4.97751 10.138L5.40465 9.8781L4.47751 8.35436V10.138H4.97751ZM4.97751 28V28.5H5.47751V28H4.97751ZM0.141508 28H-0.358492V28.5H0.141508V28ZM0.141508 0.699998V0.199998H-0.358492V0.699998H0.141508ZM4.31451 0.699998L4.74342 0.443022L4.59781 0.199998H4.31451V0.699998ZM15.1565 18.796L14.7276 19.053L15.1604 19.7754L15.5875 19.0496L15.1565 18.796ZM25.8035 0.699998V0.199998H25.5176L25.3726 0.446448L25.8035 0.699998ZM29.9765 0.699998L30.4765 0.699284L30.4758 0.199998H29.9765V0.699998ZM30.0155 28V28.5H30.5162L30.5155 27.9993L30.0155 28ZM25.7185 27.9989L25.6795 9.90292L24.6795 9.90508L24.7185 28.0011L25.7185 27.9989ZM24.7506 9.64708L15.7806 24.6231L16.6385 25.1369L25.6085 10.1609L24.7506 9.64708ZM16.2095 24.38H13.9475V25.38H16.2095V24.38ZM14.3747 24.6201L5.40465 9.8781L4.55037 10.3979L13.5204 25.1399L14.3747 24.6201ZM4.47751 10.138V28H5.47751V10.138H4.47751ZM4.97751 27.5H0.141508V28.5H4.97751V27.5ZM0.641508 28V0.699998H-0.358492V28H0.641508ZM0.141508 1.2H4.31451V0.199998H0.141508V1.2ZM3.8856 0.956974L14.7276 19.053L15.5854 18.539L4.74342 0.443022L3.8856 0.956974ZM15.5875 19.0496L26.2345 0.953549L25.3726 0.446448L14.7256 18.5424L15.5875 19.0496ZM25.8035 1.2H29.9765V0.199998H25.8035V1.2ZM29.4765 0.700712L29.5155 28.0007L30.5155 27.9993L30.4765 0.699284L29.4765 0.700712ZM30.0155 27.5H25.2185V28.5H30.0155V27.5ZM45.2676 4.99H45.7676V4.49H45.2676V4.99ZM36.2196 4.99H35.7196V5.49H36.2196V4.99ZM36.2196 0.699998V0.199998H35.7196V0.699998H36.2196ZM59.3856 0.699998H59.8856V0.199998H59.3856V0.699998ZM59.3856 4.99V5.49H59.8856V4.99H59.3856ZM50.3376 4.99V4.49H49.8376V4.99H50.3376ZM50.3376 28V28.5H50.8376V28H50.3376ZM45.2676 28H44.7676V28.5H45.2676V28ZM45.2676 4.49H36.2196V5.49H45.2676V4.49ZM36.7196 4.99V0.699998H35.7196V4.99H36.7196ZM36.2196 1.2H59.3856V0.199998H36.2196V1.2ZM58.8856 0.699998V4.99H59.8856V0.699998H58.8856ZM59.3856 4.49H50.3376V5.49H59.3856V4.49ZM49.8376 4.99V28H50.8376V4.99H49.8376ZM50.3376 27.5H45.2676V28.5H50.3376V27.5ZM45.7676 28V4.99H44.7676V28H45.7676Z" fill="#16A2B4"/>
</svg>
