<svg width="160" height="29" viewBox="0 0 160 29" fill="none" xmlns="http://www.w3.org/2000/svg">
<path d="M29.2185 28L29.1795 9.904L20.2095 24.88H17.9475L8.97751 10.138V28H4.14151V0.699998H8.31451L19.1565 18.796L29.8035 0.699998H33.9765L34.0155 28H29.2185ZM49.2676 4.99H40.2196V0.699998H63.3856V4.99H54.3376V28H49.2676V4.99Z" fill="#16A2B4"/>
<path d="M29.2185 28L28.7185 28.0011L28.7196 28.5H29.2185V28ZM29.1795 9.904L29.6795 9.90292L29.6756 8.10263L28.7506 9.64708L29.1795 9.904ZM20.2095 24.88V25.38H20.4929L20.6385 25.1369L20.2095 24.88ZM17.9475 24.88L17.5204 25.1399L17.6665 25.38H17.9475V24.88ZM8.97751 10.138L9.40465 9.8781L8.47751 8.35436V10.138H8.97751ZM8.97751 28V28.5H9.47751V28H8.97751ZM4.14151 28H3.64151V28.5H4.14151V28ZM4.14151 0.699998V0.199998H3.64151V0.699998H4.14151ZM8.31451 0.699998L8.74342 0.443022L8.59781 0.199998H8.31451V0.699998ZM19.1565 18.796L18.7276 19.053L19.1604 19.7754L19.5875 19.0496L19.1565 18.796ZM29.8035 0.699998V0.199998H29.5176L29.3726 0.446448L29.8035 0.699998ZM33.9765 0.699998L34.4765 0.699284L34.4758 0.199998H33.9765V0.699998ZM34.0155 28V28.5H34.5162L34.5155 27.9993L34.0155 28ZM29.7185 27.9989L29.6795 9.90292L28.6795 9.90508L28.7185 28.0011L29.7185 27.9989ZM28.7506 9.64708L19.7806 24.6231L20.6385 25.1369L29.6085 10.1609L28.7506 9.64708ZM20.2095 24.38H17.9475V25.38H20.2095V24.38ZM18.3747 24.6201L9.40465 9.8781L8.55037 10.3979L17.5204 25.1399L18.3747 24.6201ZM8.47751 10.138V28H9.47751V10.138H8.47751ZM8.97751 27.5H4.14151V28.5H8.97751V27.5ZM4.64151 28V0.699998H3.64151V28H4.64151ZM4.14151 1.2H8.31451V0.199998H4.14151V1.2ZM7.8856 0.956974L18.7276 19.053L19.5854 18.539L8.74342 0.443022L7.8856 0.956974ZM19.5875 19.0496L30.2345 0.953549L29.3726 0.446448L18.7256 18.5424L19.5875 19.0496ZM29.8035 1.2H33.9765V0.199998H29.8035V1.2ZM33.4765 0.700712L33.5155 28.0007L34.5155 27.9993L34.4765 0.699284L33.4765 0.700712ZM34.0155 27.5H29.2185V28.5H34.0155V27.5ZM49.2676 4.99H49.7676V4.49H49.2676V4.99ZM40.2196 4.99H39.7196V5.49H40.2196V4.99ZM40.2196 0.699998V0.199998H39.7196V0.699998H40.2196ZM63.3856 0.699998H63.8856V0.199998H63.3856V0.699998ZM63.3856 4.99V5.49H63.8856V4.99H63.3856ZM54.3376 4.99V4.49H53.8376V4.99H54.3376ZM54.3376 28V28.5H54.8376V28H54.3376ZM49.2676 28H48.7676V28.5H49.2676V28ZM49.2676 4.49H40.2196V5.49H49.2676V4.49ZM40.7196 4.99V0.699998H39.7196V4.99H40.7196ZM40.2196 1.2H63.3856V0.199998H40.2196V1.2ZM62.8856 0.699998V4.99H63.8856V0.699998H62.8856ZM63.3856 4.49H54.3376V5.49H63.3856V4.49ZM53.8376 4.99V28H54.8376V4.99H53.8376ZM54.3376 27.5H49.2676V28.5H54.3376V27.5ZM49.7676 28V4.99H48.7676V28H49.7676Z" fill="#16A2B4"/>
<path d="M74.4453 12L71.1328 2.46094H71.0703C71.1589 3.8776 71.2031 5.20573 71.2031 6.44531V12H69.5078V0.578125H72.1406L75.3125 9.66406H75.3594L78.625 0.578125H81.2656V12H79.4688V6.35156C79.4688 5.78385 79.4818 5.04427 79.5078 4.13281C79.5391 3.22135 79.5651 2.66927 79.5859 2.47656H79.5234L76.0938 12H74.4453ZM85.2334 0.578125H86.9444V6.51562C86.9444 7.13542 86.9288 7.76302 86.8975 8.39844C86.8663 9.02865 86.8428 9.45573 86.8272 9.67969H86.8975L92.7334 0.578125H94.9131V12H93.1944V6.10938C93.1944 5.20833 93.2439 4.11458 93.3428 2.82812H93.2803L87.4209 12H85.2334V0.578125ZM107.279 12H105.131L102.272 7.32812L99.3888 12H97.3888L101.178 6.07812L97.6309 0.578125H99.7091L102.35 4.89844L104.99 0.578125H107.006L103.436 6.10938L107.279 12ZM116.864 12L115.724 8.82812H111.357L110.239 12H108.271L112.544 0.53125H114.575L118.849 12H116.864ZM115.232 7.21875L114.161 4.10938C114.083 3.90104 113.974 3.57292 113.833 3.125C113.698 2.67708 113.604 2.34896 113.552 2.14062C113.411 2.78125 113.206 3.48177 112.935 4.24219L111.903 7.21875H115.232ZM121.317 0.578125H123.028V6.51562C123.028 7.13542 123.012 7.76302 122.981 8.39844C122.949 9.02865 122.926 9.45573 122.91 9.67969H122.981L128.817 0.578125H130.996V12H129.278V6.10938C129.278 5.20833 129.327 4.11458 129.426 2.82812H129.363L123.504 12H121.317V0.578125ZM143.519 12H141.652V2.17969H138.402C137.99 5.51302 137.659 7.78125 137.409 8.98438C137.165 10.1875 136.818 11.026 136.37 11.5C135.922 11.9688 135.329 12.1953 134.589 12.1797C134.209 12.1797 133.847 12.1146 133.503 11.9844V10.4297C133.8 10.5599 134.089 10.625 134.37 10.625C134.745 10.625 135.037 10.401 135.245 9.95312C135.459 9.5 135.691 8.5026 135.941 6.96094C136.196 5.41927 136.498 3.29167 136.847 0.578125H143.519V12ZM73.4531 28H71.5859V18.1797H68.2266V16.5781H76.8125V18.1797H73.4531V28ZM94.0225 22.2734C94.0225 24.138 93.5798 25.5859 92.6944 26.6172C91.8142 27.6432 90.5668 28.1562 88.9522 28.1562C87.4053 28.1562 86.1944 27.6953 85.3194 26.7734C84.4496 25.8464 83.9704 24.5391 83.8819 22.8516H81.3975V28H79.5303V16.5781H81.3975V21.25H83.9131C84.059 19.6823 84.5642 18.4818 85.4288 17.6484C86.2933 16.8151 87.4678 16.3984 88.9522 16.3984C90.5616 16.3984 91.809 16.9141 92.6944 17.9453C93.5798 18.9766 94.0225 20.4193 94.0225 22.2734ZM85.8116 22.2734C85.8116 23.6849 86.0746 24.7526 86.6006 25.4766C87.1267 26.2005 87.9053 26.5625 88.9366 26.5625C89.9834 26.5625 90.7673 26.1979 91.2881 25.4688C91.809 24.7396 92.0694 23.6745 92.0694 22.2734C92.0694 20.862 91.8064 19.7969 91.2803 19.0781C90.7543 18.3594 89.9834 18 88.9678 18C87.9261 18 87.1397 18.362 86.6084 19.0859C86.0772 19.8099 85.8116 20.8724 85.8116 22.2734ZM103.459 24.9141H103.615C104.553 24.9141 105.285 24.6641 105.811 24.1641C106.342 23.6589 106.608 22.9583 106.608 22.0625C106.608 21.2292 106.36 20.5677 105.865 20.0781C105.376 19.5885 104.701 19.3438 103.842 19.3438H103.459V24.9141ZM101.693 28.1562V26.3984H101.436C100.503 26.3984 99.683 26.2292 98.9747 25.8906C98.2716 25.5469 97.7195 25.0339 97.3184 24.3516C96.9174 23.6693 96.7169 22.9115 96.7169 22.0781C96.7169 21.2708 96.8992 20.5443 97.2638 19.8984C97.6283 19.2474 98.1518 18.7396 98.8341 18.375C99.5164 18.0052 100.316 17.8203 101.233 17.8203H101.693V16.4141H103.459V17.8203H103.936C104.858 17.8203 105.657 18.0026 106.334 18.3672C107.016 18.7318 107.535 19.237 107.889 19.8828C108.248 20.5234 108.428 21.2552 108.428 22.0781C108.428 22.9271 108.227 23.6901 107.826 24.3672C107.425 25.0443 106.873 25.5521 106.17 25.8906C105.472 26.2292 104.652 26.3984 103.709 26.3984H103.459V28.1562H101.693ZM101.693 19.3438H101.311C100.446 19.3438 99.769 19.5911 99.2794 20.0859C98.7898 20.5755 98.545 21.2344 98.545 22.0625C98.545 22.9479 98.808 23.6458 99.3341 24.1562C99.8601 24.6615 100.6 24.9141 101.553 24.9141H101.693V19.3438ZM115.63 28H113.763V18.1797H110.403V16.5781H118.989V18.1797H115.63V28ZM125.317 23.4219L122.488 28H120.356L123.574 22.9922C122.116 22.487 121.387 21.4245 121.387 19.8047C121.387 18.7578 121.749 17.9583 122.473 17.4062C123.197 16.8542 124.262 16.5781 125.668 16.5781H129.098V28H127.223V23.4219H125.317ZM127.223 18.1406H125.738C124.952 18.1406 124.348 18.2812 123.926 18.5625C123.509 18.8385 123.301 19.2917 123.301 19.9219C123.301 20.5365 123.504 21.0156 123.91 21.3594C124.317 21.7031 124.947 21.875 125.801 21.875H127.223V18.1406ZM139.534 28H133.073V16.5781H139.534V18.1562H134.941V21.2656H139.245V22.8281H134.941V26.4141H139.534V28ZM142.971 16.5781H146.362C147.934 16.5781 149.07 16.8073 149.768 17.2656C150.471 17.724 150.823 18.4479 150.823 19.4375C150.823 20.1042 150.651 20.6589 150.307 21.1016C149.963 21.5443 149.468 21.8229 148.823 21.9375V22.0156C149.625 22.1667 150.213 22.4661 150.588 22.9141C150.968 23.3568 151.158 23.9583 151.158 24.7188C151.158 25.7448 150.799 26.5495 150.08 27.1328C149.367 27.7109 148.372 28 147.096 28H142.971V16.5781ZM144.838 21.2969H146.635C147.416 21.2969 147.987 21.1745 148.346 20.9297C148.705 20.6797 148.885 20.2578 148.885 19.6641C148.885 19.1276 148.69 18.7396 148.299 18.5C147.914 18.2604 147.299 18.1406 146.455 18.1406H144.838V21.2969ZM144.838 22.8125V26.4297H146.823C147.604 26.4297 148.192 26.2812 148.588 25.9844C148.989 25.6823 149.19 25.2083 149.19 24.5625C149.19 23.9688 148.987 23.5286 148.58 23.2422C148.174 22.9557 147.557 22.8125 146.729 22.8125H144.838Z" fill="black"/>
</svg>
